HIERARCHY
ROOT hips
{
	OFFSET 0.000000 104.274902 0.000000
	CHANNELS 6 Xposition Yposition Zposition Xrotation Yrotation Zrotation
	JOINT spine
	{
		OFFSET 0.000000 10.181549 0.131524
		CHANNELS 6 Xposition Yposition Zposition Xrotation Yrotation Zrotation
		JOINT chest
		{
			OFFSET 0.000000 9.893990 -1.470706
			CHANNELS 3 Xrotation Yrotation Zrotation
			JOINT upperChest
			{
				OFFSET 0.000000 9.220787 -1.370637
				CHANNELS 3 Xrotation Yrotation Zrotation
				JOINT neck
				{
					OFFSET 0.000000 16.740372 -2.049022
					CHANNELS 6 Xposition Yposition Zposition Xrotation Yrotation Zrotation
					JOINT head
					{
						OFFSET 0.000000 9.617859 1.684976
						CHANNELS 6 Xposition Yposition Zposition Xrotation Yrotation Zrotation
						JOINT headEnd
						{
							OFFSET 0.000000 22.037384 7.501072
							CHANNELS 6 Xposition Yposition Zposition Xrotation Yrotation Zrotation
							End Site
							{
								OFFSET 0.000000 23.106567 -2.828246
							}
						}
					}
				}
				JOINT rightShoulder
				{
					OFFSET -4.570000 11.014877 -2.160840
					CHANNELS 6 Xposition Yposition Zposition Xrotation Yrotation Zrotation
					JOINT rightUpperArm
					{
						OFFSET -10.592867 -0.524796 -2.232105
						CHANNELS 3 Xrotation Yrotation Zrotation
						JOINT rightLowerArm
						{
							OFFSET -27.841497 0.000000 -0.000002
							CHANNELS 3 Xrotation Yrotation Zrotation
							JOINT rightHand
							{
								OFFSET -28.328812 0.000000 -0.000001
								CHANNELS 3 Xrotation Yrotation Zrotation
								JOINT rightThumbProximal
								{
									OFFSET -2.464798 -1.573990 2.681911
									CHANNELS 6 Xposition Yposition Zposition Xrotation Yrotation Zrotation
									JOINT rightThumbIntermediate
									{
										OFFSET -3.244781 -1.873383 1.873376
										CHANNELS 3 Xrotation Yrotation Zrotation
										JOINT rightThumbDistal
										{
											OFFSET -2.646263 -1.527817 1.527818
											CHANNELS 6 Xposition Yposition Zposition Xrotation Yrotation Zrotation
											JOINT rightHandThumb4
											{
												OFFSET -1.994591 -1.151581 1.151575
												CHANNELS 6 Xposition Yposition Zposition Xrotation Yrotation Zrotation
												End Site
												{
													OFFSET -1.860176 -1.142715 1.365483
												}
											}
										}
									}
								}
								JOINT rightIndexProximal
								{
									OFFSET -9.108299 -0.517883 2.259803
									CHANNELS 6 Xposition Yposition Zposition Xrotation Yrotation Zrotation
									JOINT rightIndexIntermediate
									{
										OFFSET -3.699997 0.000000 0.000000
										CHANNELS 3 Xrotation Yrotation Zrotation
										JOINT rightIndexDistal
										{
											OFFSET -2.850006 0.000000 0.000000
											CHANNELS 3 Xrotation Yrotation Zrotation
											JOINT rightHandIndex4
											{
												OFFSET -2.772194 0.000000 0.000000
												CHANNELS 3 Xrotation Yrotation Zrotation
												End Site
												{
													OFFSET -2.772202 0.000000 -0.000484
												}
											}
										}
									}
								}
								JOINT rightMiddleProximal
								{
									OFFSET -9.532501 0.000000 -0.000000
									CHANNELS 6 Xposition Yposition Zposition Xrotation Yrotation Zrotation
									JOINT rightMiddleIntermediate
									{
										OFFSET -3.699997 0.000000 0.000000
										CHANNELS 3 Xrotation Yrotation Zrotation
										JOINT rightMiddleDistal
										{
											OFFSET -2.949997 0.000000 0.000000
											CHANNELS 3 Xrotation Yrotation Zrotation
											JOINT rightHandMiddle4
											{
												OFFSET -2.946594 0.000000 0.000000
												CHANNELS 3 Xrotation Yrotation Zrotation
												End Site
												{
													OFFSET -2.946602 0.000000 -0.000982
												}
											}
										}
									}
								}
								JOINT rightRingProximal
								{
									OFFSET -9.103600 -0.043106 -1.865100
									CHANNELS 6 Xposition Yposition Zposition Xrotation Yrotation Zrotation
									JOINT rightRingIntermediate
									{
										OFFSET -3.379303 0.000000 0.000000
										CHANNELS 3 Xrotation Yrotation Zrotation
										JOINT rightRingDistal
										{
											OFFSET -2.889694 0.000000 0.000000
											CHANNELS 3 Xrotation Yrotation Zrotation
											JOINT rightHandRing4
											{
												OFFSET -2.638802 0.000000 0.000000
												CHANNELS 3 Xrotation Yrotation Zrotation
												End Site
												{
													OFFSET -2.638802 0.000000 0.004218
												}
											}
										}
									}
								}
								JOINT rightLittleProximal
								{
									OFFSET -8.076698 -0.486725 -3.806299
									CHANNELS 6 Xposition Yposition Zposition Xrotation Yrotation Zrotation
									JOINT rightLittleIntermediate
									{
										OFFSET -3.600006 0.000000 0.000000
										CHANNELS 3 Xrotation Yrotation Zrotation
										JOINT rightLittleDistal
										{
											OFFSET -2.099998 0.000000 0.000000
											CHANNELS 3 Xrotation Yrotation Zrotation
											JOINT rightHandPinky4
											{
												OFFSET -2.115791 0.000000 0.000000
												CHANNELS 3 Xrotation Yrotation Zrotation
												End Site
												{
													OFFSET -2.115799 0.000000 0.000174
												}
											}
										}
									}
								}
							}
						}
					}
				}
				JOINT leftShoulder
				{
					OFFSET 4.570400 11.014679 -2.160816
					CHANNELS 6 Xposition Yposition Zposition Xrotation Yrotation Zrotation
					JOINT leftUpperArm
					{
						OFFSET 10.592373 -0.524597 -2.232116
						CHANNELS 3 Xrotation Yrotation Zrotation
						JOINT leftLowerArm
						{
							OFFSET 27.841488 0.000000 0.000001
							CHANNELS 3 Xrotation Yrotation Zrotation
							JOINT leftHand
							{
								OFFSET 28.328808 0.000000 -0.000000
								CHANNELS 3 Xrotation Yrotation Zrotation
								JOINT leftThumbProximal
								{
									OFFSET 2.466103 -1.576202 2.681698
									CHANNELS 6 Xposition Yposition Zposition Xrotation Yrotation Zrotation
									JOINT leftThumbIntermediate
									{
										OFFSET 3.243317 -1.872528 1.872530
										CHANNELS 3 Xrotation Yrotation Zrotation
										JOINT leftThumbDistal
										{
											OFFSET 2.647881 -1.528763 1.528754
											CHANNELS 6 Xposition Yposition Zposition Xrotation Yrotation Zrotation
											JOINT leftHandThumb4
											{
												OFFSET 1.998924 -1.154083 1.154080
												CHANNELS 6 Xposition Yposition Zposition Xrotation Yrotation Zrotation
												End Site
												{
													OFFSET 1.884041 -1.149155 1.337651
												}
											}
										}
									}
								}
								JOINT leftIndexProximal
								{
									OFFSET 9.109299 -0.518005 2.259900
									CHANNELS 6 Xposition Yposition Zposition Xrotation Yrotation Zrotation
									JOINT leftIndexIntermediate
									{
										OFFSET 3.699997 0.000000 0.000000
										CHANNELS 3 Xrotation Yrotation Zrotation
										JOINT leftIndexDistal
										{
											OFFSET 2.850006 0.000000 0.000000
											CHANNELS 3 Xrotation Yrotation Zrotation
											JOINT leftHandIndex4
											{
												OFFSET 2.774895 0.000000 0.000000
												CHANNELS 3 Xrotation Yrotation Zrotation
												End Site
												{
													OFFSET 2.774902 0.000000 -0.000072
												}
											}
										}
									}
								}
								JOINT leftMiddleProximal
								{
									OFFSET 9.533401 0.000000 0.000000
									CHANNELS 6 Xposition Yposition Zposition Xrotation Yrotation Zrotation
									JOINT leftMiddleIntermediate
									{
										OFFSET 3.699997 0.000000 0.000000
										CHANNELS 3 Xrotation Yrotation Zrotation
										JOINT leftMiddleDistal
										{
											OFFSET 2.949997 0.000000 0.000000
											CHANNELS 3 Xrotation Yrotation Zrotation
											JOINT leftHandMiddle4
											{
												OFFSET 2.952896 0.000000 0.000000
												CHANNELS 3 Xrotation Yrotation Zrotation
												End Site
												{
													OFFSET 2.952904 0.000000 0.000165
												}
											}
										}
									}
								}
								JOINT leftRingProximal
								{
									OFFSET 9.104500 -0.042999 -1.865101
									CHANNELS 6 Xposition Yposition Zposition Xrotation Yrotation Zrotation
									JOINT leftRingIntermediate
									{
										OFFSET 3.149994 0.000000 0.000000
										CHANNELS 3 Xrotation Yrotation Zrotation
										JOINT leftRingDistal
										{
											OFFSET 2.950005 0.000000 0.000000
											CHANNELS 3 Xrotation Yrotation Zrotation
											JOINT leftHandRing4
											{
												OFFSET 2.644302 0.000000 0.000000
												CHANNELS 3 Xrotation Yrotation Zrotation
												End Site
												{
													OFFSET 2.644302 0.000000 0.000083
												}
											}
										}
									}
								}
								JOINT leftLittleProximal
								{
									OFFSET 8.077805 -0.486893 -3.806302
									CHANNELS 6 Xposition Yposition Zposition Xrotation Yrotation Zrotation
									JOINT leftLittleIntermediate
									{
										OFFSET 3.600006 0.000000 0.000000
										CHANNELS 3 Xrotation Yrotation Zrotation
										JOINT leftLittleDistal
										{
											OFFSET 2.099998 0.000000 0.000000
											CHANNELS 3 Xrotation Yrotation Zrotation
											JOINT leftHandPinky4
											{
												OFFSET 2.125496 0.000000 0.000000
												CHANNELS 3 Xrotation Yrotation Zrotation
												End Site
												{
													OFFSET 2.125504 0.000000 -0.001254
												}
											}
										}
									}
								}
							}
						}
					}
				}
			}
		}
	}
	JOINT rightUpperLeg
	{
		OFFSET -8.207800 -6.751701 -1.599544
		CHANNELS 6 Xposition Yposition Zposition Xrotation Yrotation Zrotation
		JOINT rightLowerLeg
		{
			OFFSET 0.000004 -44.370152 0.345934
			CHANNELS 3 Xrotation Yrotation Zrotation
			JOINT rightFoot
			{
				OFFSET 0.000004 -44.423664 -3.043535
				CHANNELS 3 Xrotation Yrotation Zrotation
				JOINT rightToes
				{
					OFFSET 0.000001 -8.728691 10.710592
					CHANNELS 3 Xrotation Yrotation Zrotation
					JOINT rightToesEnd
					{
						OFFSET 0.000000 -0.000665 9.278101
						CHANNELS 3 Xrotation Yrotation Zrotation
						End Site
						{
							OFFSET 0.000000 -0.000665 9.278103
						}
					}
				}
			}
		}
	}
	JOINT leftUpperLeg
	{
		OFFSET 8.207800 -6.751701 -1.599544
		CHANNELS 6 Xposition Yposition Zposition Xrotation Yrotation Zrotation
		JOINT leftLowerLeg
		{
			OFFSET 0.000004 -44.370037 0.346940
			CHANNELS 3 Xrotation Yrotation Zrotation
			JOINT leftFoot
			{
				OFFSET 0.000004 -44.423611 -3.044388
				CHANNELS 3 Xrotation Yrotation Zrotation
				JOINT leftToes
				{
					OFFSET 0.000001 -8.728690 10.710592
					CHANNELS 3 Xrotation Yrotation Zrotation
					JOINT leftToesEnd
					{
						OFFSET 0.000000 -0.000680 9.278101
						CHANNELS 3 Xrotation Yrotation Zrotation
						End Site
						{
							OFFSET 0.000000 -0.000680 9.278101
						}
					}
				}
			}
		}
	}
}
MOTION
Frames: 4
Frame Time: 0.033333
3.293880 101.345810 1.548306 -2.040215 4.185998 -7.739442 -0.000001 10.181546 0.131524 2.526240 -2.146079 2.847810 4.191169 0.293547 6.397969 4.582020 -1.771726 6.701651 0.000001 16.740360 -2.049018 0.065900 -2.887231 1.752316 -0.000002 9.617836 1.684982 -5.910541 -9.769276 3.341614 0.000004 22.037369 7.501075 -0.000000 0.000000 -0.000001 -4.570000 11.014843 -2.160838 5.024531 4.072473 3.615321 -5.460426 7.718439 66.358047 -0.000019 13.017751 -0.000012 -19.325791 -2.135133 -4.500231 -2.464812 -1.573987 2.681907 18.491289 0.461461 -10.916095 1.284030 -32.757611 3.089019 -2.646265 -1.527822 1.527815 2.008709 -8.430473 1.114701 -1.994590 -1.151582 1.151574 0.000000 -0.000005 -0.000000 -9.108310 -0.517872 2.259801 0.339565 -4.671352 7.844287 0.387031 -2.823579 20.566255 -0.193124 -0.216341 13.843923 -0.000000 -0.000000 0.000001 -9.532503 -0.000003 -0.000003 0.912578 -8.769263 15.831743 0.919074 -3.991129 33.400424 0.216468 -1.688824 15.898052 0.000001 -0.000000 0.000004 -9.103609 -0.043101 -1.865105 2.555814 -11.673030 26.909197 1.710647 -3.886778 40.215474 -0.157952 0.035274 17.815336 0.000001 0.000000 0.000001 -8.076678 -0.486713 -3.806299 5.576070 -16.029168 36.940638 1.378681 -4.077636 45.645615 -0.727745 -0.247552 22.122733 -0.000000 0.000000 0.000000 4.570402 11.014672 -2.160811 3.190405 -13.991031 -5.666517 -7.066220 -23.012994 -76.986962 -0.000006 -13.545380 0.000008 -37.763228 3.438651 -3.547652 2.466097 -1.576204 2.681696 18.491369 -0.461332 10.916056 1.284032 32.757608 -3.089008 2.647882 -1.528757 1.528750 2.117132 9.311163 -0.358614 1.998925 -1.154092 1.154075 0.000002 -0.000003 -0.000000 9.109303 -0.518016 2.259901 0.339566 4.671361 -7.844251 0.386996 2.823617 -20.566227 0.034617 0.816855 -10.169815 0.000000 0.000000 0.000000 9.533414 -0.000002 0.000001 0.912557 8.769292 -15.831721 0.919044 3.991189 -33.400393 0.170558 1.488899 -12.264406 0.000000 0.000000 0.000002 9.104502 -0.042995 -1.865100 2.555785 11.673078 -26.909173 1.710601 3.886848 -40.215454 0.544843 1.835113 -19.344153 -0.000000 -0.000001 -0.000000 8.077812 -0.486891 -3.806296 5.576042 16.029245 -36.940614 1.378646 4.077721 -45.645625 0.486562 2.853424 -20.524717 0.000000 -0.000001 0.000001 -8.207801 -6.751715 -1.599545 -1.680363 -5.998505 11.950734 15.550198 -2.707525 2.183468 -10.475618 -2.734047 -6.038492 -1.827964 0.000001 -0.000001 0.000000 -0.000000 -0.000000 8.207799 -6.751708 -1.599544 -22.369331 13.133515 18.028467 27.114721 0.535968 2.345431 -4.810159 6.560348 -6.070780 -0.419543 -0.000006 0.000001 -0.000000 0.000003 0.000000 
3.126236 101.364983 1.504426 -1.864035 3.669094 -7.540627 -0.000001 10.181552 0.131524 2.454227 -2.322503 2.801935 4.004402 0.201938 6.372367 4.373563 -1.730737 6.659500 0.000002 16.740377 -2.049023 0.038320 -2.654534 1.593842 0.000000 9.617862 1.684976 -5.721749 -8.567648 2.583690 -0.000002 22.037354 7.501074 -0.000000 0.000001 -0.000000 -4.569997 11.014905 -2.160841 4.940178 4.006867 4.019283 -5.092760 7.072478 66.430188 0.000010 12.667040 0.000013 -19.251716 -2.583095 -3.679445 -2.464784 -1.573986 2.681908 18.491289 0.461463 -10.916099 1.284030 -32.757615 3.089016 -2.646268 -1.527812 1.527821 2.008709 -8.430474 1.114699 -1.994590 -1.151598 1.151578 -0.000000 -0.000005 -0.000000 -9.108314 -0.517871 2.259804 0.339564 -4.671351 7.844289 0.387030 -2.823579 20.566255 -0.193123 -0.216341 13.843929 -0.000001 -0.000000 0.000002 -9.532499 0.000014 -0.000001 0.912578 -8.769262 15.831742 0.919074 -3.991129 33.400428 0.216467 -1.688825 15.898054 -0.000001 0.000001 0.000003 -9.103606 -0.043101 -1.865100 2.555813 -11.673028 26.909199 1.710647 -3.886778 40.215471 -0.157953 0.035274 17.815338 0.000000 -0.000000 0.000003 -8.076697 -0.486724 -3.806299 5.576070 -16.029166 36.940638 1.378681 -4.077635 45.645615 -0.727745 -0.247553 22.122735 -0.000001 0.000000 0.000000 4.570399 11.014693 -2.160814 3.213442 -13.947030 -5.663138 -6.660968 -21.448737 -77.233061 0.000009 -13.641308 -0.000003 -36.860157 3.687652 -3.680383 2.466080 -1.576202 2.681693 18.491369 -0.461333 10.916057 1.284031 32.757611 -3.089006 2.647875 -1.528756 1.528745 2.117130 9.311163 -0.358614 1.998936 -1.154096 1.154078 -0.000003 0.000001 0.000005 9.109274 -0.518016 2.259899 0.339566 4.671361 -7.844249 0.386996 2.823617 -20.566224 0.034617 0.816855 -10.169813 0.000000 -0.000000 -0.000001 9.533387 0.000002 0.000001 0.912557 8.769291 -15.831721 0.919045 3.991188 -33.400397 0.170558 1.488899 -12.264410 -0.000000 0.000001 0.000001 9.104464 -0.042992 -1.865100 2.555785 11.673078 -26.909178 1.710600 3.886848 -40.215447 0.544843 1.835115 -19.344151 -0.000000 0.000000 0.000000 8.077786 -0.486887 -3.806304 5.576041 16.029242 -36.940610 1.378644 4.077722 -45.645621 0.486562 2.853424 -20.524718 0.000001 -0.000001 0.000001 -8.207799 -6.751701 -1.599544 -1.919185 -5.826347 11.828207 15.471668 -2.888366 2.125317 -10.463670 -2.295290 -6.058648 -1.721441 0.000005 -0.000002 -0.000000 0.000000 0.000000 8.207795 -6.751697 -1.599544 -22.252099 13.026342 17.910061 26.781061 1.363166 2.218065 -4.592254 6.390382 -6.255579 -0.419547 0.000005 -0.000002 0.000000 0.000001 0.000000 
2.947298 101.383774 1.477638 -1.684793 3.154770 -7.343878 0.000001 10.181545 0.131523 2.384238 -2.465720 2.781627 3.808771 0.122109 6.350113 4.154931 -1.667346 6.617886 -0.000002 16.740343 -2.049020 0.035695 -2.426892 1.401223 0.000002 9.617839 1.684974 -5.458809 -7.490213 1.824612 -0.000001 22.037369 7.501070 0.000000 0.000001 -0.000000 -4.570003 11.014855 -2.160839 4.863034 3.946052 4.392446 -4.736782 6.451957 66.502253 -0.000011 12.364821 0.000027 -19.072154 -3.049717 -2.846904 -2.464797 -1.574001 2.681909 18.491287 0.461463 -10.916095 1.284031 -32.757611 3.089019 -2.646269 -1.527808 1.527820 2.008709 -8.430470 1.114706 -1.994590 -1.151585 1.151575 0.000001 -0.000003 -0.000000 -9.108317 -0.517871 2.259802 0.339564 -4.671351 7.844287 0.387031 -2.823578 20.566255 -0.193126 -0.216341 13.843932 -0.000000 -0.000001 0.000004 -9.532511 -0.000001 -0.000001 0.912576 -8.769262 15.831742 0.919073 -3.991129 33.400424 0.216467 -1.688824 15.898052 0.000000 -0.000000 -0.000001 -9.103617 -0.043101 -1.865105 2.555812 -11.673029 26.909199 1.710646 -3.886778 40.215471 -0.157952 0.035275 17.815331 0.000000 0.000000 0.000002 -8.076705 -0.486728 -3.806302 5.576068 -16.029166 36.940641 1.378681 -4.077637 45.645611 -0.727744 -0.247552 22.122735 0.000000 -0.000000 0.000000 4.570400 11.014673 -2.160813 3.237038 -13.917367 -5.657264 -6.093940 -19.785970 -77.375921 -0.000007 -13.725740 0.000001 -35.972185 3.900438 -3.888056 2.466063 -1.576200 2.681692 18.491368 -0.461337 10.916057 1.284027 32.757604 -3.089008 2.647879 -1.528751 1.528748 2.117131 9.311164 -0.358616 1.998910 -1.154092 1.154076 0.000002 0.000003 -0.000000 9.109280 -0.518016 2.259899 0.339566 4.671361 -7.844251 0.386996 2.823617 -20.566227 0.034617 0.816855 -10.169813 -0.000000 0.000000 0.000000 9.533391 0.000004 0.000000 0.912557 8.769291 -15.831721 0.919045 3.991189 -33.400400 0.170558 1.488900 -12.264408 0.000000 -0.000000 0.000001 9.104479 -0.043011 -1.865105 2.555785 11.673079 -26.909178 1.710600 3.886847 -40.215454 0.544844 1.835115 -19.344151 -0.000000 -0.000001 0.000000 8.077786 -0.486891 -3.806308 5.576041 16.029242 -36.940610 1.378646 4.077721 -45.645621 0.486560 2.853426 -20.524715 0.000000 -0.000001 0.000000 -8.207799 -6.751705 -1.599544 -2.139242 -5.623179 11.723574 15.367031 -3.132478 2.067521 -10.449820 -1.821782 -6.075032 -1.616333 0.000002 -0.000003 -0.000000 0.000000 0.000000 8.207803 -6.751703 -1.599547 -22.129589 12.918787 17.803238 26.448956 2.194382 2.099792 -4.379274 6.213219 -6.452424 -0.419552 -0.000000 -0.000004 0.000000 0.000003 0.000000 
2.759704 101.402138 1.469847 -1.503452 2.626593 -7.144504 -0.000001 10.181551 0.131523 2.308855 -2.550145 2.776771 3.599357 0.064068 6.327403 3.920790 -1.570856 6.572998 0.000002 16.740387 -2.049022 0.058836 -2.211782 1.173739 0.000002 9.617839 1.684978 -5.135423 -6.541471 1.059056 0.000002 22.037384 7.501070 -0.000000 0.000001 -0.000001 -4.569995 11.014870 -2.160840 4.793353 3.891010 4.733741 -4.391328 5.854381 66.574612 0.000005 12.129060 -0.000010 -18.796208 -3.531743 -1.997319 -2.464793 -1.574004 2.681908 18.491284 0.461463 -10.916095 1.284029 -32.757608 3.089016 -2.646257 -1.527813 1.527815 2.008710 -8.430473 1.114701 -1.994602 -1.151585 1.151580 0.000003 -0.000005 0.000001 -9.108306 -0.517872 2.259802 0.339564 -4.671350 7.844289 0.387031 -2.823579 20.566256 -0.193126 -0.216341 13.843932 0.000001 -0.000001 0.000003 -9.532503 0.000001 -0.000002 0.912576 -8.769263 15.831743 0.919073 -3.991130 33.400424 0.216469 -1.688824 15.898049 0.000000 -0.000001 0.000001 -9.103598 -0.043109 -1.865103 2.555814 -11.673030 26.909200 1.710647 -3.886779 40.215474 -0.157952 0.035274 17.815338 -0.000001 0.000000 0.000001 -8.076694 -0.486728 -3.806300 5.576067 -16.029165 36.940641 1.378682 -4.077635 45.645611 -0.727745 -0.247552 22.122735 -0.000002 0.000001 -0.000000 4.570401 11.014681 -2.160813 3.261818 -13.895004 -5.644572 -5.375146 -18.033677 -77.449926 -0.000013 -13.802311 -0.000001 -35.110219 4.071253 -4.162342 2.466103 -1.576208 2.681688 18.491368 -0.461332 10.916057 1.284027 32.757608 -3.089006 2.647879 -1.528768 1.528747 2.117133 9.311167 -0.358616 1.998917 -1.154090 1.154086 -0.000002 -0.000005 -0.000000 9.109301 -0.518016 2.259900 0.339566 4.671362 -7.844250 0.386996 2.823617 -20.566226 0.034617 0.816855 -10.169810 -0.000000 0.000000 -0.000001 9.533406 0.000002 -0.000000 0.912557 8.769293 -15.831721 0.919045 3.991189 -33.400400 0.170557 1.488900 -12.264413 -0.000000 0.000000 -0.000001 9.104502 -0.043007 -1.865098 2.555785 11.673080 -26.909173 1.710601 3.886849 -40.215457 0.544843 1.835115 -19.344149 -0.000001 0.000001 -0.000000 8.077809 -0.486887 -3.806304 5.576042 16.029242 -36.940607 1.378646 4.077720 -45.645628 0.486562 2.853424 -20.524722 -0.000000 -0.000001 -0.000001 -8.207800 -6.751718 -1.599545 -2.335987 -5.424297 11.617102 15.247666 -3.446965 2.019384 -10.436643 -1.251615 -6.083440 -1.513163 -0.000000 0.000002 0.000000 -0.000000 -0.000000 8.207798 -6.751698 -1.599547 -21.992574 12.808013 17.702783 26.118179 3.050046 1.985530 -4.174312 6.030389 -6.661969 -0.419550 -0.000011 -0.000000 -0.000000 0.000001 0.000000 
